<?xml version="1.0" encoding="utf-8"?>
<!-- Generator: Adobe Illustrator 16.0.0, SVG Export Plug-In . SVG Version: 6.00 Build 0)  -->
<!DOCTYPE svg PUBLIC "-//W3C//DTD SVG 1.1//EN" "http://www.w3.org/Graphics/SVG/1.1/DTD/svg11.dtd">
<svg version="1.1" id="Layer_1" xmlns="http://www.w3.org/2000/svg" xmlns:xlink="http://www.w3.org/1999/xlink" x="0px" y="0px"
	 width="595.28px" height="256px" viewBox="0 0 595.28 256" enable-background="new 0 0 595.28 256" xml:space="preserve">
<g>
	<path fill-rule="evenodd" clip-rule="evenodd" fill="#ED1C24" d="M142.727,76.243c1.462,0.271,2.956,0.431,4.382,0.831
		c7.716,2.159,13.123,9.216,13.136,17.211c0.03,18.133,0.058,36.268-0.005,54.401c-0.059,16.807-12.478,31.695-29.033,34.922
		c-1.925,0.375-3.888,0.559-5.832,0.831c-21.027,0-42.054,0-63.08,0c-0.121-0.056-0.236-0.143-0.362-0.165
		c-6.278-1.115-9.666-5.135-9.667-11.493c-0.002-19.892-0.036-39.784,0.038-59.675c0.01-2.865,0.29-5.781,0.873-8.583
		c2.912-14,15.178-25.546,29.194-27.649c1.672-0.251,3.354-0.422,5.033-0.63C105.845,76.243,124.286,76.243,142.727,76.243z
		 M88.787,146.853c0-0.522,0-0.921,0-1.321c0-3.435,0.009-6.87-0.004-10.305c-0.007-1.695-0.601-2.284-2.268-2.288
		c-2.482-0.007-4.965-0.008-7.447,0c-1.641,0.005-2.255,0.626-2.259,2.303c-0.009,3.468-0.003,6.937-0.003,10.406
		c0,0.364,0,0.729,0,1.205c-0.473,0-0.839,0-1.205,0c-2.618,0-5.237-0.011-7.855,0.004c-1.228,0.007-1.988,0.686-1.999,1.828
		c-0.025,2.754-0.024,5.509,0,8.263c0.009,1.137,0.71,1.797,1.883,1.809c2.04,0.021,4.08,0.007,6.121,0.007c0.978,0,1.955,0,3.055,0
		c0,0.474,0,0.838,0,1.203c0,3.401-0.002,6.801,0,10.203c0.001,1.996,0.57,2.579,2.528,2.584c2.312,0.006,4.625,0.006,6.937,0
		c1.923-0.004,2.51-0.584,2.514-2.493c0.006-3.4,0.002-6.801,0.002-10.202c0-0.396,0-0.792,0-1.294c0.508,0,0.875,0,1.241,0
		c2.551,0,5.101,0.005,7.651-0.001c1.583-0.005,2.195-0.63,2.2-2.238c0.005-2.449,0.004-4.896,0-7.345
		c-0.003-1.707-0.625-2.324-2.343-2.326C94.684,146.85,91.831,146.853,88.787,146.853z M82.803,121.35
		c1.155,0,2.31,0.013,3.465-0.002c1.627-0.022,2.48-0.815,2.505-2.422c0.036-2.377,0.035-4.756,0-7.133
		c-0.023-1.58-0.825-2.37-2.415-2.392c-2.377-0.032-4.755-0.033-7.133,0c-1.572,0.023-2.393,0.848-2.411,2.402
		c-0.028,2.378-0.03,4.756,0,7.133c0.02,1.542,0.88,2.377,2.421,2.409C80.425,121.37,81.614,121.35,82.803,121.35z M82.722,99.783
		c1.256,0,2.514,0.018,3.77-0.004c1.371-0.023,2.223-0.741,2.258-2.093c0.066-2.545,0.065-5.094,0.004-7.641
		c-0.034-1.386-0.918-2.161-2.313-2.173c-2.411-0.021-4.823-0.019-7.234-0.001c-1.445,0.01-2.352,0.812-2.381,2.225
		c-0.052,2.512-0.052,5.027,0.002,7.539c0.029,1.327,0.904,2.114,2.226,2.142C80.276,99.802,81.5,99.782,82.722,99.783z
		 M140.887,158.763c1.223,0,2.446,0.014,3.668-0.003c1.435-0.021,2.264-0.846,2.274-2.29c0.019-2.446,0.021-4.892-0.001-7.338
		c-0.013-1.401-0.895-2.263-2.315-2.274c-2.446-0.018-4.892-0.02-7.337,0.001c-1.388,0.011-2.233,0.845-2.245,2.213
		c-0.02,2.48-0.018,4.96-0.001,7.439c0.01,1.465,0.8,2.229,2.289,2.249C138.44,158.775,139.664,158.763,140.887,158.763z
		 M123.364,152.846c0-1.291,0.022-2.583-0.006-3.873c-0.026-1.195-0.851-2.087-2.038-2.105c-2.581-0.041-5.163-0.038-7.744-0.003
		c-1.225,0.017-2.091,0.925-2.103,2.16c-0.023,2.548-0.027,5.096,0.002,7.643c0.014,1.215,0.851,2.065,2.051,2.08
		c2.581,0.031,5.164,0.029,7.745,0.002c1.27-0.013,2.066-0.849,2.09-2.134C123.384,155.36,123.366,154.103,123.364,152.846z"/>
	<path fill-rule="evenodd" clip-rule="evenodd" d="M435.875,76.243c1.042,0.137,2.081,0.293,3.126,0.409
		c5.722,0.638,11.169,2.141,15.834,5.641c4.25,3.188,7.031,7.449,8.161,12.675c0.413,1.912,0.552,3.884,0.826,5.917
		c-7.473,0-14.671,0-21.938,0c-0.027-0.206-0.094-0.432-0.08-0.651c0.192-2.908-1.386-4.747-3.774-5.958
		c-2.384-1.208-4.933-1.523-7.614-1.137c-1.705,0.245-3.315,0.555-4.767,1.564c-2.089,1.456-2.192,4.416-0.136,6.055
		c2.336,1.861,5.125,2.667,7.913,3.444c5.504,1.535,11.052,2.918,16.534,4.521c3.798,1.11,7.36,2.832,10.391,5.415
		c3.252,2.771,5.395,6.266,6.141,10.536c0.813,4.656,0.438,9.212-1.225,13.64c-0.828,2.205-2.092,4.14-3.591,5.978
		c-2.307,2.829-5.215,4.831-8.405,6.417c-3.439,1.71-7.097,2.876-10.938,3.299c-3.369,0.372-6.748,0.853-10.129,0.902
		c-5.865,0.085-11.563-0.982-17.008-3.269c-3.56-1.496-6.832-3.365-9.499-6.238c-2.931-3.156-5.011-6.763-5.918-10.96
		c-0.465-2.149-0.574-4.375-0.858-6.673c0.538-0.038,0.828-0.076,1.119-0.076c7.075-0.003,14.152,0.013,21.228-0.021
		c0.905-0.005,1.127,0.275,1.154,1.159c0.097,3.114,0.963,5.974,3.826,7.625c1.314,0.758,2.912,1.143,4.432,1.395
		c1.62,0.269,3.309,0.323,4.952,0.218c2.729-0.172,5.351-0.833,6.979-3.307c1.909-2.897,1.214-5.993-1.888-7.372
		c-2.76-1.227-5.634-2.224-8.515-3.14c-3.832-1.217-7.719-2.266-11.587-3.37c-2.985-0.853-5.907-1.873-8.619-3.408
		c-4.66-2.636-8.255-6.164-9.478-11.603c-0.558-2.475-0.633-4.962-0.37-7.507c0.303-2.929,0.95-5.735,2.331-8.315
		c2.257-4.219,5.533-7.466,9.769-9.723c3.844-2.048,7.952-3.207,12.269-3.68c0.877-0.096,1.744-0.267,2.614-0.403
		C431.385,76.243,433.63,76.243,435.875,76.243z"/>
	<path fill-rule="evenodd" clip-rule="evenodd" d="M536.926,131.158c-0.137,0.837-0.29,1.672-0.407,2.512
		c-0.559,3.97-2.153,7.449-4.749,10.517c-4.52,5.347-10.508,7.951-17.146,9.437c-4.088,0.914-8.232,1.31-12.396,1.302
		c-4.387-0.009-8.735-0.487-12.955-1.86c-3.566-1.16-7.049-2.472-10.123-4.669c-2.684-1.918-4.853-4.307-6.576-7.136
		c-1.638-2.688-2.67-5.587-3.172-8.662c-0.253-1.556-0.223-3.158-0.327-4.838c0.403-0.028,0.693-0.066,0.983-0.067
		c7.078-0.003,14.155,0.013,21.231-0.021c0.904-0.005,1.12,0.275,1.158,1.158c0.13,3.092,0.941,5.976,3.815,7.621
		c1.319,0.755,2.911,1.147,4.431,1.401c1.62,0.271,3.31,0.327,4.95,0.218c2.756-0.183,5.42-0.818,7.026-3.374
		c1.928-3.066,1.104-5.934-1.91-7.29c-2.782-1.252-5.699-2.231-8.61-3.163c-3.639-1.165-7.327-2.177-11.005-3.221
		c-3.147-0.894-6.237-1.924-9.102-3.542c-4.666-2.637-8.256-6.175-9.491-11.606c-0.563-2.471-0.626-4.964-0.371-7.507
		c0.292-2.931,0.929-5.746,2.329-8.316c3.218-5.9,8.189-9.693,14.537-11.763c3.156-1.029,6.376-1.716,9.702-1.847
		c0.14-0.006,0.274-0.129,0.411-0.198c2.246,0,4.491,0,6.736,0c0.103,0.067,0.202,0.183,0.31,0.194
		c1.4,0.148,2.806,0.25,4.201,0.427c4.416,0.559,8.628,1.778,12.461,4.094c3.459,2.09,6.181,4.905,8.124,8.473
		c1.292,2.375,2.027,4.923,2.437,7.565c0.197,1.276,0.195,2.583,0.283,3.861c-7.418,0-14.639,0-21.815,0
		c-0.073-0.857-0.044-1.65-0.222-2.394c-0.597-2.491-2.448-3.815-4.677-4.651c-2.162-0.811-4.394-1.012-6.719-0.667
		c-1.744,0.259-3.383,0.623-4.818,1.701c-1.553,1.165-1.883,3.636-0.68,5.102c1.687,2.052,4.09,2.909,6.472,3.603
		c4.907,1.431,9.904,2.558,14.829,3.934c4.983,1.393,9.84,3.083,13.954,6.436c3.15,2.566,5.257,5.757,6.261,9.672
		c0.291,1.14,0.425,2.32,0.63,3.481C536.926,128.436,536.926,129.797,536.926,131.158z"/>
	<path fill-rule="evenodd" clip-rule="evenodd" d="M229.895,76.243c0.976,0.137,1.948,0.304,2.928,0.406
		c5.977,0.627,11.614,2.252,16.402,6.02c4.204,3.308,6.833,7.668,7.807,12.958c0.313,1.706,0.476,3.44,0.718,5.245
		c-7.431,0-14.723,0-21.985,0c-0.149-1.073-0.114-2.198-0.481-3.169c-0.878-2.326-2.873-3.422-5.121-4.114
		c-2.976-0.916-5.931-0.771-8.873,0.196c-1.96,0.644-3.319,1.885-3.368,3.998c-0.042,1.802,1.158,2.964,2.684,3.816
		c3.299,1.842,6.919,2.75,10.54,3.624c6.475,1.56,12.983,3.002,18.941,6.139c4.543,2.392,7.973,5.817,9.663,10.761
		c1.154,3.377,1.113,6.852,0.792,10.368c-0.351,3.861-1.614,7.337-3.899,10.446c-1.935,2.632-4.297,4.796-7.114,6.47
		c-4.157,2.47-8.671,3.811-13.412,4.666c-4.525,0.815-9.074,1.005-13.604,0.707c-6.914-0.455-13.49-2.295-19.279-6.275
		c-5.219-3.587-8.466-8.553-9.658-14.791c-0.326-1.705-0.426-3.454-0.625-5.184c-0.069-0.606,0.195-0.847,0.819-0.845
		c7.382,0.017,14.764,0.017,22.146,0.025c0.062,0,0.123,0.041,0.078,0.024c0.359,1.68,0.599,3.331,1.076,4.91
		c0.773,2.552,2.639,3.982,5.17,4.693c3.297,0.925,6.628,1.16,9.937,0.319c2.139-0.543,4.122-1.577,4.874-3.908
		c1.295-4.014-0.25-5.721-3.288-6.803c-5.439-1.939-11.04-3.421-16.533-5.217c-3.568-1.167-7.168-2.325-10.564-3.897
		c-4.1-1.898-7.445-4.852-9.251-9.112c-0.752-1.774-1.194-3.762-1.351-5.687c-0.285-3.493-0.077-6.992,1.173-10.339
		c1.567-4.197,4.185-7.613,7.742-10.314c4.14-3.144,8.895-4.75,13.975-5.521c1.334-0.203,2.667-0.408,4.001-0.612
		C225.268,76.243,227.582,76.243,229.895,76.243z"/>
	<path fill-rule="evenodd" clip-rule="evenodd" fill="#ED1C24" d="M172.123,184.439c-1.656-0.373-3.278-0.79-4.667-1.87
		c-3.058-2.379-4.216-6.457-2.8-10.062c1.45-3.696,4.999-5.774,9.222-5.4c3.469,0.307,6.676,3.323,7.368,6.93
		c0.926,4.832-2.355,9.458-7.226,10.197c-0.229,0.035-0.448,0.135-0.671,0.205C172.939,184.439,172.531,184.439,172.123,184.439z"/>
	<path fill-rule="evenodd" clip-rule="evenodd" d="M491.198,184.439c-1.105-0.394-2.267-0.678-3.304-1.204
		c-2.288-1.158-3.404-3.269-3.959-5.63c-0.587-2.495-0.424-4.98,0.701-7.362c1.118-2.366,2.904-3.802,5.448-4.449
		c2.091-0.533,4.164-0.498,6.138,0.184c2.274,0.786,3.823,2.414,4.285,5.006c-1.072,0.192-2.174,0.423-3.289,0.561
		c-0.214,0.026-0.604-0.271-0.69-0.502c-0.544-1.431-2.522-2.369-4.486-2.186c-3.625,0.339-4.826,3.976-4.382,6.94
		c0.192,1.279,0.346,2.525,1.194,3.538c1.603,1.913,3.777,2.287,6.179,1.354c1.888-0.733,1.998-0.959,1.822-3.166
		c-1.361,0-2.736,0-4.166,0c0-1.117,0-2.123,0-3.209c2.645,0,5.308,0,8.096,0c0,2.291,0.05,4.593-0.045,6.889
		c-0.017,0.409-0.55,0.967-0.979,1.157c-1.565,0.694-3.188,1.26-4.787,1.88c-0.11,0.042-0.205,0.131-0.308,0.198
		C493.511,184.439,492.354,184.439,491.198,184.439z"/>
	<path fill-rule="evenodd" clip-rule="evenodd" d="M237.245,184.439c-1.036-0.392-2.176-0.621-3.085-1.208
		c-2.242-1.446-3.527-3.516-3.894-6.245c-0.342-2.543-0.122-4.951,1.026-7.22c1.702-3.367,5.359-4.72,9.192-4.158
		c2.214,0.325,3.988,1.228,5.428,2.897c1.178,1.366,1.771,3.018,1.9,4.74c0.156,2.096,0.157,4.201-0.726,6.244
		c-1.165,2.695-3.156,4.192-5.963,4.749c-0.144,0.028-0.272,0.132-0.408,0.201C239.558,184.439,238.401,184.439,237.245,184.439z
		 M234.21,174.967c-0.097,0.02-0.193,0.04-0.29,0.059c0.331,1.242,0.484,2.57,1.035,3.705c0.783,1.617,2.261,2.475,4.088,2.426
		c1.77-0.048,3.275-0.737,4.11-2.408c1.122-2.246,1.135-4.601,0.334-6.92c-1.112-3.22-4.909-3.833-7.181-2.223
		C234.495,170.891,233.966,172.804,234.21,174.967z"/>
	<path fill-rule="evenodd" clip-rule="evenodd" d="M524.474,184.439c-0.797-0.277-1.632-0.476-2.383-0.843
		c-2.178-1.064-2.984-3.03-3.367-5.427c1.138-0.156,2.237-0.335,3.344-0.429c0.167-0.014,0.481,0.348,0.538,0.583
		c0.714,2.959,3.318,3.279,5.666,2.564c0.827-0.252,1.449-0.925,1.525-1.948c0.079-1.056-0.531-1.56-1.38-1.833
		c-1.8-0.583-3.627-1.081-5.431-1.653c-3.46-1.099-4.878-5.284-2.182-8.219c1.15-1.254,2.824-1.711,4.464-1.728
		c1.481-0.016,2.991,0.261,4.445,0.596c1.726,0.398,3.754,3.048,3.237,5.006c-0.981,0.086-1.979,0.208-2.981,0.239
		c-0.258,0.008-0.678-0.213-0.764-0.431c-0.769-1.959-2.253-2.714-4.301-2.116c-0.094,0.027-0.179,0.088-0.272,0.114
		c-0.772,0.221-1.539,0.528-1.564,1.455c-0.026,0.933,0.766,1.317,1.493,1.552c1.707,0.551,3.458,0.961,5.165,1.514
		c4.804,1.557,4.846,6.89,2.283,9.255c-0.967,0.894-2.143,1.483-3.512,1.564c-0.121,0.007-0.234,0.121-0.351,0.185
		C526.923,184.439,525.697,184.439,524.474,184.439z"/>
	<path fill-rule="evenodd" clip-rule="evenodd" d="M305.225,184.439c-1.143-0.496-2.342-0.893-3.412-1.512
		c-1.42-0.822-1.913-2.31-2.295-3.812c-0.074-0.286-0.104-0.583-0.174-0.983c1.234-0.146,2.475-0.293,3.712-0.439
		c0.653,3.419,3.165,3.916,5.545,3.267c1.036-0.283,1.983-1.453,1.923-2.216c-0.07-0.875-0.853-1.504-2.096-1.875
		c-1.871-0.56-3.792-1.04-5.557-1.846c-2.72-1.242-3.27-3.647-2.502-6.056c0.596-1.871,2.174-2.879,4.021-3.26
		c2.298-0.474,4.578-0.393,6.737,0.759c1.872,0.999,2.403,2.695,2.683,4.64c-1.302,0.111-2.503,0.213-3.771,0.321
		c-0.325-1.241-0.739-2.467-2.164-2.572c-1.066-0.079-2.194,0.022-3.226,0.302c-1.141,0.309-1.24,1.93-0.145,2.392
		c1.212,0.511,2.518,0.799,3.75,1.271c1.418,0.543,2.866,1.064,4.176,1.814c1.139,0.652,1.634,1.853,1.776,3.18
		c0.269,2.482-0.546,4.465-2.734,5.723c-0.776,0.446-1.713,0.611-2.575,0.904C307.673,184.439,306.449,184.439,305.225,184.439z"/>
	<path fill-rule="evenodd" clip-rule="evenodd" d="M338.296,184.439c-1.267-0.444-2.541-0.782-3.572-1.793
		c-1.291-1.266-1.659-2.852-1.698-4.475c-0.096-4.008-0.023-8.02-0.013-12.03c0-0.059,0.048-0.117,0.097-0.225c1.19,0,2.4,0,3.753,0
		c0,0.365,0,0.723,0,1.082c0,3.738-0.079,7.479,0.032,11.215c0.056,1.911,1.202,2.784,3.243,2.949
		c1.906,0.154,3.307-0.853,3.455-2.407c0.119-1.242,0.194-2.493,0.208-3.741c0.031-2.685,0.01-5.369,0.01-8.055
		c0-0.331,0-0.661,0-1.042c1.238,0,2.38,0,3.595,0c0.024,0.255,0.068,0.514,0.069,0.772c0.004,3.942,0.11,7.889-0.033,11.826
		c-0.103,2.837-1.008,4.555-4.063,5.627c-0.328,0.114-0.666,0.199-1,0.297C341.017,184.439,339.655,184.439,338.296,184.439z"/>
	<path fill-rule="evenodd" clip-rule="evenodd" d="M203.153,184.439c-1.09-0.447-2.25-0.773-3.254-1.364
		c-1.97-1.159-2.979-3.11-3.428-5.234c-0.509-2.41-0.446-4.854,0.532-7.213c1.154-2.786,3.117-4.468,6.13-4.991
		c1.67-0.29,3.257-0.197,4.815,0.415c2.172,0.852,3.562,2.417,4.189,4.888c-1.235,0.3-2.487,0.603-3.726,0.904
		c-0.712-2.001-1.98-3.024-3.759-3.123c-1.532-0.086-3.395,1.107-3.944,2.726c-0.841,2.479-0.833,4.977,0.182,7.437
		c0.671,1.623,2.41,2.314,3.823,2.268c1.372-0.046,2.775-0.833,3.363-2.671c0.129-0.405,0.326-0.789,0.498-1.195
		c1.014,0.292,1.973,0.563,2.928,0.842c0.545,0.158,0.707,0.402,0.489,1.028c-0.99,2.845-2.779,4.719-5.874,5.13
		c-0.042,0.006-0.072,0.102-0.108,0.155C205.058,184.439,204.105,184.439,203.153,184.439z"/>
	<path fill-rule="evenodd" clip-rule="evenodd" d="M302.068,78.084c0.274,0,0.541,0,0.808,0c6.261,0,12.521,0.011,18.781-0.015
		c0.758-0.003,1.009,0.231,1.146,0.995c0.68,3.803,1.46,7.589,2.176,11.387c0.714,3.798,1.377,7.606,2.09,11.404
		c0.578,3.078,1.216,6.145,1.792,9.223c0.713,3.798,1.388,7.603,2.084,11.403c0.144,0.782,0.313,1.56,0.521,2.58
		c3.14-15.795,6.235-31.366,9.333-46.948c7.666,0,15.248,0,22.972,0c-7.018,25.046-14.024,50.054-21.03,75.062
		c-7.534,0-14.982,0-22.592,0c-2.684-15.156-5.373-30.334-8.062-45.512c-0.039-0.007-0.078-0.014-0.117-0.021
		c-2.614,15.153-5.227,30.307-7.848,45.509c-7.542,0-15.085,0-22.716,0c-6.779-24.947-13.565-49.922-20.381-75.002
		c0.431-0.028,0.722-0.063,1.013-0.063c6.941-0.003,13.882,0.003,20.823-0.011c0.688-0.001,1.017,0.074,1.176,0.937
		c0.785,4.253,1.739,8.474,2.572,12.719c1.131,5.753,2.184,11.522,3.314,17.275c0.905,4.604,1.883,9.193,2.821,13.791
		c0.084,0.412,0.121,0.834,0.364,1.244C296.084,108.771,299.063,93.499,302.068,78.084z"/>
	<path fill-rule="evenodd" clip-rule="evenodd" d="M368.991,78.128c7.736,0,15.409,0,23.137,0c0,25.017,0,49.99,0,75.019
		c-7.721,0-15.393,0-23.137,0C368.991,128.171,368.991,103.196,368.991,78.128z"/>
	<path fill-rule="evenodd" clip-rule="evenodd" d="M450.169,165.868c1.223,0,2.338-0.028,3.45,0.021
		c0.227,0.011,0.515,0.263,0.65,0.481c2.264,3.644,4.51,7.3,6.896,11.177c0-4.015,0-7.788,0-11.621c1.245,0,2.388,0,3.693,0
		c0,0.295,0,0.617,0,0.939c0,5.405-0.018,10.811,0.019,16.216c0.005,0.872-0.209,1.185-1.134,1.171
		c-2.784-0.042-2.732-0.034-4.232-2.569c-1.779-3.005-3.661-5.951-5.676-8.908c0,0.316,0,0.632,0,0.948
		c0,3.161-0.024,6.324,0.017,9.485c0.011,0.824-0.267,1.042-1.061,1.039c-2.623-0.012-2.623,0.016-2.623-2.622
		C450.169,176.426,450.169,171.227,450.169,165.868z"/>
	<path fill-rule="evenodd" clip-rule="evenodd" d="M280.927,165.92c0,1.521,0,2.976,0,4.431c0,4.284-0.019,8.567,0.018,12.85
		c0.006,0.812-0.24,1.05-1.048,1.047c-2.846-0.011-2.813-0.001-4.283-2.488c-1.698-2.872-3.461-5.705-5.204-8.551
		c-0.098-0.16-0.26-0.28-0.506-0.538c0,1.254,0,2.389,0,3.523c0,2.38-0.016,4.76,0.01,7.14c0.007,0.645-0.187,0.892-0.868,0.911
		c-2.81,0.076-2.81,0.097-2.81-2.739c0-5.165,0-10.329,0-15.635c1.221,0,2.397-0.029,3.57,0.027c0.208,0.01,0.447,0.341,0.592,0.574
		c2.243,3.613,4.473,7.235,6.851,11.091c0-4.037,0-7.813,0-11.643C278.492,165.92,279.634,165.92,280.927,165.92z"/>
	<path fill-rule="evenodd" clip-rule="evenodd" d="M395.072,169.151c0-1.164,0-2.146,0-3.206c4.788,0,9.556,0,14.396,0
		c0,1.01,0,2.039,0,3.145c-1.704,0-3.392,0-5.238,0c0,0.43,0,0.786,0,1.142c0,4.282-0.021,8.563,0.019,12.844
		c0.007,0.853-0.164,1.195-1.109,1.179c-2.781-0.047-2.781-0.005-2.781-2.773c0-4.073,0-8.146,0-12.33
		C398.587,169.151,396.876,169.151,395.072,169.151z"/>
	<path fill-rule="evenodd" clip-rule="evenodd" d="M379.873,184.231c-0.573,0-1.107,0-1.643,0c-3.398,0-6.797-0.014-10.194,0.011
		c-0.671,0.005-0.971-0.141-0.968-0.897c0.026-5.539,0.024-11.078,0.004-16.617c-0.004-0.672,0.228-0.864,0.884-0.876
		c2.999-0.059,2.998-0.077,2.998,2.957c0,4.005,0,8.012,0,12.128c2.988,0,5.922,0,8.919,0
		C379.873,182.05,379.873,183.056,379.873,184.231z"/>
	<path fill-rule="evenodd" clip-rule="evenodd" d="M427.305,165.905c1.33,0,2.539,0,3.81,0c0,6.097,0,12.156,0,18.324
		c-1.066,0-2.108-0.004-3.152,0.002c-0.741,0.004-0.656-0.524-0.656-1c-0.001-2.752-0.001-5.503-0.001-8.255
		C427.305,171.99,427.305,169.003,427.305,165.905z"/>
</g>
</svg>
